<svg width="648" height="404" viewBox="0 0 486 404" xmlns="http://www.w3.org/2000/svg"><path fill="#0e164b" opacity=".42" d="M173.35 0h139.47c-.26.39-.78 1.16-1.05 1.55-2.13-.91-4.5-.47-6.75-.56-42.35.01-84.69.03-127.04-.01-1.29-.01-2.57.16-3.81.51-.21-.37-.62-1.12-.82-1.49zM0 .12c.32.28.96.82 1.29 1.1C.88 4.12.97 7.06 1 9.98v384.06c0 3.32-.16 6.65.3 9.96H0V.12z"/><path fill="#223c91" opacity=".75" d="M174.17 1.49c1.24-.35 2.52-.52 3.81-.51 42.35.04 84.69.02 127.04.01 2.25.09 4.62-.35 6.75.56-23.18 22.56-45.82 45.68-68.78 68.47-22.92-22.87-45.72-45.85-68.82-68.53z"/><path fill="#191ba9" d="M1 9.98c-.03-2.92-.12-5.86.29-8.76 24.79 24.7 49.69 49.3 74.35 74.13-.13 101.41.08 202.82-.11 304.23-8.12 8.14-16.29 16.24-24.38 24.42H1.3c-.46-3.31-.3-6.64-.3-9.96V9.98z"/><path fill="#5cc2f2" d="M410.37 75.34c24.89-25.06 50.01-49.9 75.03-74.82.06 134.22-.04 268.45.06 402.67-23.49-.47-46.99-.02-70.48-.23-1.43.23-3.48-.56-4.33 1.04h-.1c-.35-33.67-.05-67.35-.15-101.02-.02-75.88.05-151.76-.03-227.64z"/><path fill="#141487" opacity=".8" d="M102.83 104.01c24.32 23.7 47.96 48.11 72.28 71.8 1.02 1.24 2.92 2.24 2.65 4.12.02 27.62-.05 55.24.03 82.86-20.51 20.79-41.26 41.36-61.95 61.97-4.22 4.16-8.2 8.58-12.79 12.35l-.45-1.18c.2-47.65.17-95.29.17-142.94.13-29.66-.34-59.32.06-88.98z"/><g fill="#489bc0"><path opacity=".8" d="M310.33 191.37c24.27-24.15 48.59-48.25 72.78-72.47.49 8.59.14 17.2.25 25.8-.07 71.78-.13 143.56-.09 215.34-.14 14.65.26 29.33-.2 43.96h-74.64c-.42-25.66-.06-51.34-.18-77 0-44.03-.01-88.07.01-132.1-.24-1.57 1.16-2.51 2.07-3.53zM410.65 404c.85-1.6 2.9-.81 4.33-1.04 23.49.21 46.99-.24 70.48.23l.05.81h-74.86z"/></g><path fill="#101467" opacity=".6" d="M204.68 192.12c8.06 7.64 15.87 15.58 23.61 23.54-8.07 7.51-15.44 15.78-23.62 23.16.04-15.57.02-31.13.01-46.7z"/><path fill="#377391" opacity=".6" d="M250.36 234.46c10.38-9.9 20.49-20.07 30.7-30.14.13 64.21 0 128.42.06 192.63.03 2.35.06 4.72-.38 7.05h-74.46c-.12-41.87-.17-83.75.03-125.61 14.78-14.55 29.31-29.35 44.05-43.93z"/><path fill="#1d2f8b" opacity=".76" d="M80.39 404c32.69-32.92 65.5-65.73 98.59-98.23.13 32.74.08 65.48.15 98.23H80.39z"/></svg>